<mxfile host="app.diagrams.net" modified="2024-07-23T14:10:18.305Z" agent="Mozilla/5.0 (X11; Linux x86_64; rv:109.0) Gecko/20100101 Firefox/115.0" version="24.7.2" etag="zlSDwuR0g4o1sDUOaUYz" type="github">
  <diagram name="Page-1" id="9VVs0U3Os1gA6rcq2a_g">
    <mxGraphModel>
      <root>
        <mxCell id="0" />
        <mxCell id="1" parent="0" />
      </root>
    </mxGraphModel>
  </diagram>
</mxfile>
